<svg xmlns="http://www.w3.org/2000/svg" width="800" height="800" viewBox="0 0 800 800">
  <path id="check" d="M421-298,704-581l-46-45L421-389,301-509l-45,45ZM480-80q-82,0-155-31.5t-127.5-86Q143-252,111.5-325T80-480q0-83,31.5-156t86-127Q252-817,325-848.5T480-880q83,0,156,31.5T763-763q54,54,85.5,127T880-480q0,82-31.5,155T763-197.5q-54,54.5-127,86T480-80Zm0-60q142,0,241-99.5T820-480q0-142-99-241T480-820q-141,0-240.5,99T140-480q0,141,99.5,240.5T480-140ZM480-480Z" transform="translate(-80 880)" fill="#00c100"/>
</svg>
